<?xml version="1.0" standalone="no"?>
<!DOCTYPE svg PUBLIC "-//W3C//DTD SVG 20010904//EN"
 "http://www.w3.org/TR/2001/REC-SVG-20010904/DTD/svg10.dtd">
<svg version="1.0" xmlns="http://www.w3.org/2000/svg"
 width="700.000000pt" height="700.000000pt" viewBox="0 0 700.000000 700.000000"
 preserveAspectRatio="xMidYMid meet">
<metadata>
Created by potrace 1.14, written by Peter Selinger 2001-2017
</metadata>
<g transform="translate(0.000000,700.000000) scale(0.100000,-0.100000)"
fill="#000000" stroke="none">
<path d="M1938 6405 c-2 -1 -25 -5 -53 -9 -43 -5 -96 -14 -180 -30 -36 -7
-109 -27 -167 -47 -282 -94 -517 -239 -728 -449 -181 -180 -288 -341 -405
-605 -50 -112 -106 -322 -121 -455 -3 -30 -8 -64 -10 -75 -13 -67 -3 -343 17
-460 6 -33 12 -70 14 -81 8 -53 59 -224 86 -293 67 -170 175 -355 287 -496 31
-38 679 -692 1439 -1453 l1383 -1384 1363 1364 c750 750 1395 1400 1433 1445
183 212 318 479 385 760 12 48 22 97 24 108 1 11 5 40 9 65 13 86 16 126 16
250 -1 154 -6 213 -30 345 -110 595 -514 1105 -1069 1349 -157 69 -299 109
-496 140 -90 14 -434 16 -500 2 -16 -4 -55 -11 -85 -17 -165 -30 -313 -80
-475 -159 -194 -95 -327 -190 -492 -353 l-83 -81 -87 86 c-298 293 -643 463
-1059 522 -82 12 -406 20 -416 11z"/>
</g>
</svg>
